<?xml version="1.0" encoding="UTF-8"?>
<svg id="Layer_1" data-name="Layer 1" xmlns="http://www.w3.org/2000/svg" version="1.1" xmlns:xlink="http://www.w3.org/1999/xlink" viewBox="0 0 200 24">
  <defs>
    <style>
      .cls-1 {
        filter: url(#drop-shadow-1);
      }

      .cls-2 {
        fill: #ffe43b;
        stroke-width: 0px;
      }
    </style>
    <filter id="drop-shadow-1" filterUnits="userSpaceOnUse">
      <feOffset dx="1" dy="1"/>
      <feGaussianBlur result="blur" stdDeviation="0"/>
      <feFlood flood-color="#8e8888" flood-opacity=".8"/>
      <feComposite in2="blur" operator="in"/>
      <feComposite in="SourceGraphic"/>
    </filter>
  </defs>
  <g class="cls-1">
    <path class="cls-2" d="M8.9,2.4c.3,0,.8,0,1.4,0,.6,0,1.2,0,1.8.1.6,0,1.1.1,1.6.2s.8.1.9.2l-.5,3.5h-.2c0-.8-.3-1.5-1-2-.7-.5-1.5-.8-2.7-.8s-1.7.2-2.2.5c-.6.4-.9.8-.9,1.4,0,.6.1,1,.6,1.3s.9.6,1.5.9l4.3,2c.9.4,1.5.9,2,1.7s.7,1.7.6,2.8c-.1,1.6-.8,2.9-2.1,3.8-1.3.9-3,1.3-5.2,1.3s-1.7,0-2.4-.2c-.7-.1-1.3-.3-1.9-.5s-.9-.5-1.2-.7c-.2-.4-.2-.9-.2-1.4,0-.6.1-1.1.3-1.6.2-.5.4-1,.6-1.3h.2c0,.8.1,1.6.5,2.3.4.7,1,1.3,1.7,1.7.8.4,1.7.7,2.8.7s1.9-.2,2.4-.7.8-1,.8-1.6-.2-.9-.6-1.3c-.4-.4-1-.8-1.9-1.2l-3.7-1.7c-1.1-.5-1.8-1.2-2.3-2s-.7-1.8-.5-2.9c.1-.9.4-1.6.9-2.3.5-.6,1.1-1.1,1.8-1.4.8-.3,1.7-.5,2.7-.5ZM14.6,2.6v.5h-3.4v-.5h3.4Z"/>
    <path class="cls-2" d="M33.8,12.1l.6,4.2c-.3.5-.7,1-1.3,1.4-.5.4-1.2.8-2.1,1-.9.3-1.9.4-3.1.4-2.1,0-3.8-.3-5.3-1-1.5-.7-2.7-1.6-3.5-2.8-.8-1.2-1.2-2.8-1.2-4.6s.4-3.2,1.2-4.5c.8-1.2,1.9-2.2,3.5-2.9,1.5-.7,3.3-1,5.4-1s2.4.1,3.4.3c1,.2,1.8.5,2.5.7l-.2,4.4h-.2c-.5-1.6-1.1-2.7-2-3.4-.9-.6-1.9-.9-3.1-.9s-2.1.3-2.9.9c-.8.6-1.4,1.4-1.9,2.4s-.6,2.3-.6,3.8.2,2.8.6,3.9c.4,1.1,1,1.9,1.7,2.5s1.6.9,2.7.9c1.2,0,2.2-.2,3-.6.7-.4,1.3-1,1.7-1.9s.8-2,1-3.5h.2Z"/>
    <path class="cls-2" d="M37.6,4.4h0c0-.4-.2-.7-.4-1-.3-.3-.6-.4-1-.4h-.3v-.2h1.8v1.7ZM37.6,17.1v1.7h-1.8v-.2h.3c.4,0,.7-.1,1-.4.3-.3.4-.6.4-1h0ZM42.3,2.7v16.1h-4.7V2.7h4.7ZM48.7,10.2v1.1h-6.6v-1.1h6.6ZM42.2,4.4v-1.7h1.8v.2h-.3c-.4,0-.7.1-1,.4s-.4.6-.4,1h0ZM42.2,17.1h0c0,.4.2.7.4,1s.6.4,1,.4h.3v.2h-1.8v-1.7ZM48.5,4.4h0c0-.4-.1-.7-.4-1-.3-.3-.6-.4-1-.4h-.3v-.2h1.8v1.7ZM48.5,17.1v1.7h-1.8v-.2h.3c.4,0,.7-.1,1-.4.3-.3.4-.6.4-1h0ZM53.2,2.7v16.1h-4.7V2.7h4.7ZM53.1,4.4v-1.7h1.8v.2h-.3c-.4,0-.7.1-1,.4s-.4.6-.4,1h0ZM53.1,17.1h0c0,.4.2.7.4,1s.6.4,1,.4h.3v.2h-1.8v-1.7Z"/>
    <path class="cls-2" d="M65.5,2.4c2,0,3.7.3,5.1,1s2.5,1.6,3.3,2.9c.8,1.2,1.1,2.7,1.1,4.5s-.4,3.2-1.1,4.5c-.8,1.2-1.9,2.2-3.3,2.9s-3.1,1-5.1,1-3.7-.3-5.1-1c-1.4-.7-2.5-1.6-3.3-2.9-.8-1.2-1.1-2.7-1.1-4.5s.4-3.2,1.1-4.5c.8-1.2,1.9-2.2,3.3-2.9,1.4-.7,3.1-1,5.1-1ZM65.5,18c1,0,1.8-.3,2.4-.9.7-.6,1.2-1.4,1.5-2.5.4-1.1.5-2.4.5-3.9s-.2-2.8-.5-3.9c-.4-1.1-.9-1.9-1.5-2.5-.7-.6-1.5-.9-2.4-.9s-1.7.3-2.4.9c-.7.6-1.2,1.4-1.5,2.5-.4,1.1-.5,2.4-.5,3.9s.2,2.8.5,3.9c.4,1.1.9,1.9,1.5,2.5.7.6,1.5.9,2.4.9Z"/>
    <path class="cls-2" d="M86.8,2.4c2,0,3.7.3,5.1,1s2.5,1.6,3.3,2.9c.8,1.2,1.1,2.7,1.1,4.5s-.4,3.2-1.1,4.5c-.8,1.2-1.9,2.2-3.3,2.9s-3.1,1-5.1,1-3.7-.3-5.1-1c-1.4-.7-2.5-1.6-3.3-2.9-.8-1.2-1.1-2.7-1.1-4.5s.4-3.2,1.1-4.5c.8-1.2,1.9-2.2,3.3-2.9,1.4-.7,3.1-1,5.1-1ZM86.8,18c1,0,1.8-.3,2.4-.9.7-.6,1.2-1.4,1.5-2.5.4-1.1.5-2.4.5-3.9s-.2-2.8-.5-3.9c-.4-1.1-.9-1.9-1.5-2.5-.7-.6-1.5-.9-2.4-.9s-1.7.3-2.4.9c-.7.6-1.2,1.4-1.5,2.5-.4,1.1-.5,2.4-.5,3.9s.2,2.8.5,3.9c.4,1.1.9,1.9,1.5,2.5.7.6,1.5.9,2.4.9Z"/>
    <path class="cls-2" d="M99.3,4.4h0c0-.4-.2-.7-.4-1-.3-.3-.6-.4-1-.4h-.3v-.2h1.8v1.7ZM99.3,17.1v1.7h-1.8v-.2h.3c.4,0,.7-.1,1-.4.3-.3.4-.6.4-1h0ZM104,2.7v16.1h-4.7V2.7h4.7ZM103.9,4.4v-1.7h1.8v.2h-.3c-.4,0-.7.1-1,.4-.3.3-.4.6-.4,1h0ZM109.9,17.6l.9,1.2h-7v-1.2h6ZM111.8,13.5l-.9,5.3h-5l.8-1.2c.7,0,1.4-.2,2.1-.5.6-.3,1.2-.8,1.7-1.4.5-.6.8-1.4,1.1-2.2h.2Z"/>
    <path class="cls-2" d="M120.1,4.4h0c0-.4-.1-.7-.4-1-.3-.3-.6-.4-1-.4h-.3v-.2s1.8,0,1.8,0v1.7ZM120.1,17.1v1.7h-1.8v-.2h.3c.4,0,.7-.1,1-.4.3-.3.4-.6.4-1h0ZM124.7,2.7v16.1h-4.7V2.7h4.7ZM126.9,2.7c1.9,0,3.6.3,4.9,1,1.4.6,2.4,1.6,3.2,2.8.7,1.2,1.1,2.6,1.1,4.3s-.4,3.1-1.1,4.3-1.8,2.1-3.2,2.8c-1.4.6-3,1-4.9,1h-5.8v-1.1h5.4c1,0,1.8-.3,2.5-.8.7-.6,1.2-1.3,1.6-2.4.4-1,.5-2.3.5-3.7s-.2-2.7-.5-3.7-.9-1.8-1.6-2.4c-.7-.6-1.5-.8-2.5-.8h-5.6v-1.1h6.1Z"/>
    <path class="cls-2" d="M139,4.4h0c0-.4-.2-.7-.4-1-.3-.3-.6-.4-1-.4h-.3v-.2h1.8v1.7ZM139,17.1v1.7h-1.8v-.2h.3c.4,0,.7-.1,1-.4.3-.3.4-.6.4-1h0ZM143.6,2.7v16.1h-4.7V2.7h4.7ZM150,2.7v1.2h-6.5v-1.2h6.5ZM148.8,10.3v1.1h-5.3v-1.1h5.3ZM149.6,17.6l.9,1.2h-7v-1.2h6ZM151.4,13.5l-.9,5.3h-5l.8-1.2c.7,0,1.4-.2,2.1-.5.6-.3,1.2-.8,1.7-1.4.5-.6.8-1.4,1.1-2.2h.2ZM148.8,7.7v2.7h-2.7c.7,0,1.3-.3,1.8-.8.5-.5.7-1.1.7-1.8h0c0,0,.2,0,.2,0ZM148.8,11.4v2.7h-.2c0-.8-.2-1.4-.7-1.9-.5-.5-1.1-.7-1.8-.7h0s2.7,0,2.7,0ZM150,3.8v3.2h-.2v-.2c0-.9-.3-1.6-.8-2.2-.5-.5-1.2-.8-2.2-.8h0s3.2,0,3.2,0ZM150,2.3v.7l-2.8-.3c.3,0,.7,0,1.1,0,.4,0,.7,0,1-.2.3,0,.6-.1.7-.2Z"/>
    <path class="cls-2" d="M153.7,17.1v1.7h-2.6v-.2h.4c.4,0,.8-.1,1.1-.4.3-.3.5-.6.6-1.1h.5ZM155.3,2.4h.2l1,2.9-1.7,13.5h-1.8l2.3-16.4ZM155.5,2.4l8.1,11.1-1.8,5.9-7-9.7.7-7.3ZM155,17.5h0c0,.4,0,.6.3.8.2.2.4.3.6.3h.4v.2h-1.4v-1.3h.2ZM170.3,2.4l.2,3.1-7.5,11.2c-.3.6-.6,1-.7,1.4-.2.4-.2.8-.2,1.2h-.2l-1.3-2.4,9.8-14.6ZM167.7,17.5h.2v1.3h-1.4v-.2h.4c.2,0,.5-.1.6-.3.2-.2.3-.4.3-.7h0ZM170.5,2.4l2.3,16.4h-4.9l-1.1-8.4,3.5-8h.2ZM172.1,17.1h.5c0,.5.3.8.6,1.1s.7.4,1.1.4h.4v.2h-2.6v-1.7Z"/>
    <path class="cls-2" d="M184.3,2.4c2,0,3.7.3,5.1,1,1.4.7,2.5,1.6,3.3,2.9.8,1.2,1.2,2.7,1.2,4.5s-.4,3.2-1.2,4.5c-.8,1.2-1.9,2.2-3.3,2.9-1.4.7-3.1,1-5.1,1s-3.7-.3-5.1-1-2.5-1.6-3.3-2.9-1.2-2.7-1.2-4.5.4-3.2,1.2-4.5c.8-1.2,1.9-2.2,3.3-2.9s3.1-1,5.1-1ZM184.3,18c1,0,1.8-.3,2.4-.9.7-.6,1.2-1.4,1.5-2.5.4-1.1.5-2.4.5-3.9s-.2-2.8-.5-3.9-.9-1.9-1.5-2.5c-.7-.6-1.5-.9-2.4-.9s-1.7.3-2.4.9c-.7.6-1.2,1.4-1.5,2.5s-.5,2.4-.5,3.9.2,2.8.5,3.9c.4,1.1.9,1.9,1.5,2.5.7.6,1.5.9,2.4.9Z"/>
  </g>
</svg>